<svg width="132" height="200" viewBox="0 0 132 200" fill="none" xmlns="http://www.w3.org/2000/svg">
<g clip-path="url(#clip0_659_593)">
<path d="M66.3217 110.541C74.949 110.541 82.0484 107.297 87.6202 100.811C93.3717 94.1441 96.2474 85.1351 96.2474 73.7838C96.2474 45.3153 86.2722 31.0811 66.3217 31.0811C46.3713 31.0811 36.3961 44.5946 36.3961 71.6216C36.3961 83.5135 39.1819 92.973 44.7537 100C50.5052 107.027 57.6945 110.541 66.3217 110.541ZM95.169 119.189C92.6527 125.135 88.0695 129.82 81.4194 133.243C74.9489 136.486 67.4001 138.108 58.7729 138.108C47.8092 138.108 38.5529 136.216 31.0041 132.432C23.635 128.468 17.6139 123.333 12.9408 117.027C8.44748 110.721 5.12241 103.423 2.96561 95.1351C0.988535 86.8468 0 78.3784 0 69.7297C0 59.4594 1.52774 50.0901 4.58321 41.6216C7.63868 32.973 11.7726 25.6757 16.9848 19.7297C22.1971 13.6036 28.3081 8.91891 35.3177 5.67567C42.3273 2.25225 49.8761 0.540543 57.9641 0.540543C74.4996 0.540543 86.9012 7.20721 95.169 20.5405V4.05405H130.217V138.378C130.217 148.468 128.51 157.297 125.095 164.865C121.68 172.613 117.007 179.009 111.075 184.054C105.144 189.279 98.1346 193.243 90.0466 195.946C81.9586 198.649 73.3313 200 64.1649 200C54.9985 200 46.4612 198.649 38.5529 195.946C30.6446 193.423 23.8147 189.73 18.0632 184.865C12.4915 180.18 8.08802 174.414 4.85281 167.568C1.6176 160.721 0 152.973 0 144.324H32.6217C32.6217 152.432 35.2278 158.649 40.4401 162.973C45.8321 167.477 52.9316 169.73 61.7385 169.73C71.0847 169.73 78.993 167.117 85.4634 161.892C91.9338 156.847 95.169 149.91 95.169 141.081V119.189Z" fill="#0029C1"/>
<path d="M224.952 71.8919C223.155 73.6937 220.549 75.1351 217.134 76.2162C213.719 77.2973 208.776 78.4684 202.306 79.7297C192.241 81.7117 185.321 84.2342 181.546 87.2973C177.772 90.3604 175.885 94.7748 175.885 100.541C175.885 110.45 181.546 115.405 192.87 115.405C197.363 115.405 201.497 114.685 205.271 113.243C209.225 111.622 212.551 109.55 215.247 107.027C218.122 104.324 220.369 101.261 221.987 97.8378C223.784 94.2342 224.683 90.4504 224.683 86.4865L224.952 71.8919ZM227.379 137.027C226.3 133.604 225.581 129.64 225.222 125.135C221.088 129.82 215.606 133.604 208.776 136.486C201.946 139.189 194.038 140.541 185.051 140.541C169.774 140.541 158.541 137.207 151.351 130.541C144.342 123.694 140.837 114.865 140.837 104.054C140.837 94.5045 142.365 86.9369 145.42 81.3513C148.475 75.5856 152.699 71.0811 158.091 67.8378C163.483 64.5946 169.864 62.2522 177.233 60.8108C184.782 59.1892 192.96 57.7477 201.767 56.4865C210.573 55.2252 216.505 53.6036 219.56 51.6216C222.616 49.4594 224.143 46.036 224.143 41.3513C224.143 37.027 222.076 33.6937 217.943 31.3513C213.988 28.8288 208.596 27.5676 201.767 27.5676C193.679 27.5676 187.837 29.3694 184.242 32.973C180.828 36.5766 178.671 41.3513 177.772 47.2973H145.15C145.33 40.4504 146.409 34.1441 148.386 28.3784C150.542 22.6126 153.867 17.6576 158.361 13.5135C163.034 9.36936 169.055 6.21621 176.424 4.05405C183.793 1.71171 192.78 0.540543 203.384 0.540543C213.809 0.540543 222.616 1.71171 229.805 4.05405C237.174 6.39639 243.015 9.81981 247.329 14.3243C251.822 18.6486 255.058 24.1441 257.035 30.8108C259.012 37.2973 260 44.6847 260 52.973V137.027H227.379Z" fill="#0029C1"/>
<path d="M353.941 44.3243C353.043 38.1982 350.706 33.7838 346.932 31.0811C343.337 28.1982 337.765 26.7568 330.216 26.7568C323.027 26.7568 317.545 27.6576 313.771 29.4594C310.176 31.0811 308.379 33.9639 308.379 38.1081C308.379 41.7117 310.176 44.5946 313.771 46.7567C317.545 48.9189 322.937 50.991 329.947 52.973C341.45 56.2162 351.155 59.009 359.064 61.3513C366.972 63.5135 373.263 66.1261 377.936 69.1892C382.789 72.2522 386.203 76.1261 388.181 80.8108C390.337 85.3153 391.416 91.4414 391.416 99.1892C391.416 111.081 386.473 120.991 376.588 128.919C366.702 136.667 352.054 140.541 332.643 140.541C323.117 140.541 314.49 139.459 306.761 137.297C299.033 135.135 292.382 132.072 286.811 128.108C281.419 123.964 277.195 119.099 274.14 113.514C271.264 107.748 269.736 101.351 269.556 94.3243H305.683C305.683 100.631 308.109 105.495 312.962 108.919C317.995 112.342 324.465 114.054 332.373 114.054C339.023 114.054 344.685 113.063 349.358 111.081C354.211 108.919 356.637 105.676 356.637 101.351C356.637 96.4865 354.84 92.973 351.245 90.8108C347.83 88.6486 342.528 86.7568 335.339 85.1351C322.398 82.2522 311.973 79.2793 304.065 76.2162C296.157 72.973 289.956 69.4595 285.463 65.6757C281.149 61.8919 278.184 57.7477 276.566 53.2432C275.128 48.7387 274.409 43.6937 274.409 38.1081C274.409 33.063 275.398 28.2883 277.375 23.7838C279.531 19.2793 282.857 15.3153 287.35 11.8919C291.843 8.46846 297.685 5.76576 304.874 3.78378C312.063 1.62162 320.87 0.540543 331.295 0.540543C350.347 0.540543 364.276 4.41442 373.083 12.1622C381.89 19.9099 386.743 30.6306 387.641 44.3243H353.941Z" fill="#0029C1"/>
<path d="M475.207 49.4595H507.828V87.2973C507.828 94.3243 506.75 101.081 504.593 107.568C502.616 113.874 499.381 119.55 494.888 124.595C490.574 129.459 485.002 133.333 478.172 136.216C471.522 139.099 463.524 140.541 454.178 140.541C444.472 140.541 436.205 139.099 429.375 136.216C422.545 133.333 416.883 129.459 412.39 124.595C408.076 119.73 404.931 114.054 402.954 107.568C400.977 101.081 399.988 94.2342 399.988 87.027V-31.8919H434.497V4.05405H507.828V28.9189H434.497V83.5135C434.497 91.982 436.025 98.5586 439.08 103.243C442.315 107.748 447.528 110 454.717 110C461.727 110 466.849 107.748 470.084 103.243C473.499 98.7387 475.207 92.3423 475.207 84.054V49.4595Z" fill="#0029C1"/>
<path d="M520.571 137.027V4.05405H553.463V20C556.338 15.4955 559.304 11.982 562.359 9.45945C565.595 6.93693 568.83 5.04504 572.065 3.78378C575.48 2.34233 578.895 1.44143 582.31 1.08108C585.725 0.720722 589.229 0.540543 592.824 0.540543H597.407V36.4865C594.172 35.9459 590.937 35.6757 587.702 35.6757C566.313 35.6757 555.619 46.3964 555.619 67.8378V137.027H520.571Z" fill="#0029C1"/>
<path d="M663.746 111.081C685.134 111.081 695.828 97.5676 695.828 70.5405C695.828 43.6937 685.134 30.2703 663.746 30.2703C642.358 30.2703 631.664 43.6937 631.664 70.5405C631.664 97.5676 642.358 111.081 663.746 111.081ZM663.746 140.541C652.962 140.541 643.346 138.829 634.899 135.405C626.451 131.982 619.262 127.207 613.331 121.081C607.579 114.955 603.176 107.568 600.12 98.9189C597.065 90.2703 595.537 80.8108 595.537 70.5405C595.537 60.0901 597.065 50.5405 600.12 41.8919C603.355 33.2432 607.939 25.8558 613.87 19.7297C619.801 13.6036 626.901 8.91891 635.168 5.67567C643.616 2.25225 653.142 0.540543 663.746 0.540543C674.171 0.540543 683.517 2.25225 691.784 5.67567C700.052 8.91891 707.062 13.6036 712.813 19.7297C718.745 25.6757 723.238 32.973 726.293 41.6216C729.529 50.2703 731.146 59.9099 731.146 70.5405C731.146 81.1712 729.529 90.8108 726.293 99.4594C723.238 107.928 718.745 115.225 712.813 121.351C707.062 127.477 699.962 132.252 691.515 135.676C683.247 138.919 673.991 140.541 663.746 140.541Z" fill="#0029C1"/>
<path d="M816.119 132.162C822.949 132.162 828.79 130.721 833.643 127.838C838.675 124.955 842.54 121.351 845.236 117.027C848.111 112.703 850.358 107.207 851.976 100.541C854.312 89.9099 855.48 76.4865 855.48 60.2703C855.48 44.054 852.695 31.7117 847.123 23.2432C841.551 14.7748 833.733 10.5405 823.668 10.5405C813.602 10.5405 804.346 14.8649 795.899 23.5135C787.631 31.982 783.497 39.8198 783.497 47.027L784.036 122.162C792.663 128.829 803.358 132.162 816.119 132.162ZM783.767 -70L783.497 -12.1622C783.497 6.21621 783.048 19.2793 782.149 27.027H784.575C789.428 19.0991 796.168 12.973 804.795 8.64864C813.423 4.32432 822.679 2.16216 832.564 2.16216C847.482 2.16216 859.974 7.38739 870.039 17.8378C880.104 28.1081 885.136 44.5045 885.136 67.027C885.136 89.3694 879.115 107.207 867.073 120.541C855.031 133.694 837.867 140.27 815.58 140.27C810.547 140.27 804.706 139.459 798.055 137.838C791.585 136.216 786.283 134.054 782.149 131.351L757.346 140V-57.027L733.621 -58.1081L733.351 -64.3243L783.767 -70Z" fill="#0029C1"/>
<path d="M1044.35 71.0811C1044.35 91.0811 1038.33 107.568 1026.29 120.541C1014.25 133.514 997.801 140 976.952 140C956.283 140 939.927 133.514 927.885 120.541C915.843 107.568 909.822 91.0811 909.822 71.0811C909.822 51.0811 915.843 34.5946 927.885 21.6216C939.927 8.64865 956.283 2.16216 976.952 2.16216C997.801 2.16216 1014.25 8.64865 1026.29 21.6216C1038.33 34.5946 1044.35 51.0811 1044.35 71.0811ZM939.208 71.0811C939.208 112.703 951.79 133.514 976.952 133.514C1002.29 133.514 1014.97 112.703 1014.97 71.0811C1014.97 50.9009 1012.09 35.4955 1006.34 24.8649C1000.59 14.2342 990.882 8.91891 977.222 8.91891C963.562 8.91891 953.767 14.2342 947.835 24.8649C942.084 35.4955 939.208 50.9009 939.208 71.0811Z" fill="#0029C1"/>
<path d="M1150 108.919C1150 109.459 1149.91 110.09 1149.73 110.811C1146.85 119.64 1142 126.757 1135.17 132.162C1128.52 137.387 1120.7 140 1111.72 140C1102.73 140 1095.18 137.477 1089.07 132.432C1083.14 127.207 1080.17 117.117 1080.17 102.162C1080.17 98.018 1080.62 68.018 1081.52 12.1622H1062.92V5.13512H1081.79L1082.06 -34.5946H1108.48L1107.67 5.13512H1146.23V12.1622H1107.67C1106.77 70.3604 1106.32 104.414 1106.32 114.324C1106.32 126.396 1110.28 132.432 1118.19 132.432C1123.04 132.432 1128.07 129.64 1133.28 124.054C1138.68 118.468 1142.45 112.162 1144.61 105.135C1148.2 105.135 1150 106.396 1150 108.919Z" fill="#0029C1"/>
</g>
<defs>
<clipPath id="clip0_659_593">
<rect width="132" height="200" fill="white"/>
</clipPath>
</defs>
</svg>
