<?xml version="1.0" encoding="utf-8"?>
<!-- Generator: Adobe Illustrator 21.0.0, SVG Export Plug-In . SVG Version: 6.00 Build 0)  -->
<svg version="1.1" xmlns="http://www.w3.org/2000/svg" xmlns:xlink="http://www.w3.org/1999/xlink" x="0px" y="0px"
	 viewBox="0 0 167 203" style="enable-background:new 0 0 167 203;" xml:space="preserve">
<style type="text/css">
	.st0{display:none;}
	.st1{display:inline;fill:#2A323F;}
	.st2{fill:#FFFFFF;}
	.st3{fill:#FEEF4C;}
</style>
<g id="Layer_1_copy" class="st0">
</g>
<g id="text">
</g>
<g id="logo">
</g>
<g id="Layer_6" class="st0">
	<rect x="-82.7" y="-63.6" class="st1" width="332.2" height="330.6"/>
</g>
<g id="Layer_4">
	<g>
		<path class="st3" d="M115.9,128c2.3,0,4.2-0.8,5.8-2.3c1.6-1.6,2.3-3.5,2.3-5.8v-73c0-2.3-0.8-4.2-2.3-5.8
			c-1.6-1.6-3.5-2.3-5.8-2.3H90.3v63.9h-5.2v-42H72.2V38.8H56.4c-0.1,4.3-1.5,7.9-4.2,10.9c-2.8,3.1-6.3,5-10.3,5.6v47.4h-5.2V55.3
			c-4.1-0.6-7.5-2.5-10.3-5.6c-2.7-3-4.1-6.6-4.2-10.9H10.5c-2.3,0-4.2,0.8-5.8,2.3c-1.6,1.6-2.3,3.5-2.3,5.8v113.5L34.8,128H115.9z
			"/>
		<path class="st3" d="M162.3,73.6c-1.6-1.6-3.5-2.3-5.8-2.3h-16.2v73H34.8v16.2c0,2.3,0.8,4.2,2.3,5.8c1.6,1.6,3.5,2.3,5.8,2.3
			h89.2l32.4,32.4V79.4C164.6,77.1,163.8,75.1,162.3,73.6z"/>
		<path class="st3" d="M56.4,38.3V3h-5.2v35.3h-9.3V3h-5.2v35.3h-9.3V3h-5.2v35.3c0,0.2,0,0.3,0,0.5h34.3
			C56.4,38.7,56.4,38.5,56.4,38.3z"/>
		<path class="st3" d="M90.3,3.2c-5.5,0.7-9.9,3.4-13.2,7.9c-3.3,4.5-4.9,9.7-4.9,15.5v12.2h18.2V3.2z"/>
	</g>
</g>
<g id="Layer_7" class="st0">
</g>
<g id="Layer_5">
</g>
</svg>
