<svg width="1150" height="270" viewBox="0 0 1150 270" fill="none" xmlns="http://www.w3.org/2000/svg">
<path d="M66.3217 180.541C74.949 180.541 82.0484 177.297 87.6202 170.811C93.3717 164.144 96.2474 155.135 96.2474 143.784C96.2474 115.315 86.2722 101.081 66.3217 101.081C46.3713 101.081 36.3961 114.595 36.3961 141.622C36.3961 153.514 39.1819 162.973 44.7537 170C50.5052 177.027 57.6945 180.541 66.3217 180.541ZM95.169 189.189C92.6527 195.135 88.0695 199.82 81.4194 203.243C74.949 206.486 67.4001 208.108 58.7729 208.108C47.8092 208.108 38.5529 206.216 31.0041 202.432C23.635 198.468 17.6139 193.333 12.9408 187.027C8.44748 180.721 5.12241 173.423 2.96561 165.135C0.988535 156.847 0 148.378 0 139.73C0 129.459 1.52774 120.09 4.58321 111.622C7.63868 102.973 11.7726 95.6757 16.9848 89.7297C22.1971 83.6036 28.3081 78.9189 35.3177 75.6757C42.3273 72.2523 49.8761 70.5405 57.9641 70.5405C74.4996 70.5405 86.9012 77.2072 95.169 90.5405V74.054H130.217V208.378C130.217 218.468 128.51 227.297 125.095 234.865C121.68 242.613 117.007 249.009 111.075 254.054C105.144 259.279 98.1346 263.243 90.0466 265.946C81.9586 268.649 73.3313 270 64.1649 270C54.9985 270 46.4612 268.649 38.5529 265.946C30.6446 263.423 23.8147 259.73 18.0632 254.865C12.4915 250.18 8.08802 244.414 4.85281 237.568C1.6176 230.721 0 222.973 0 214.324H32.6217C32.6217 222.432 35.2278 228.649 40.4401 232.973C45.8321 237.477 52.9316 239.73 61.7385 239.73C71.0847 239.73 78.993 237.117 85.4634 231.892C91.9338 226.847 95.169 219.91 95.169 211.081V189.189Z" fill="#0029C1"/>
<path d="M224.952 141.892C223.155 143.694 220.549 145.135 217.134 146.216C213.719 147.297 208.776 148.468 202.306 149.73C192.241 151.712 185.321 154.234 181.546 157.297C177.772 160.36 175.885 164.775 175.885 170.541C175.885 180.45 181.546 185.405 192.87 185.405C197.363 185.405 201.497 184.685 205.271 183.243C209.225 181.622 212.551 179.55 215.247 177.027C218.122 174.324 220.369 171.261 221.987 167.838C223.784 164.234 224.683 160.45 224.683 156.486L224.952 141.892ZM227.379 207.027C226.3 203.604 225.581 199.64 225.222 195.135C221.088 199.82 215.606 203.604 208.776 206.486C201.946 209.189 194.038 210.541 185.051 210.541C169.774 210.541 158.541 207.207 151.351 200.541C144.342 193.694 140.837 184.865 140.837 174.054C140.837 164.504 142.365 156.937 145.42 151.351C148.475 145.586 152.699 141.081 158.091 137.838C163.483 134.595 169.864 132.252 177.233 130.811C184.782 129.189 192.96 127.748 201.767 126.486C210.573 125.225 216.505 123.604 219.56 121.622C222.616 119.459 224.143 116.036 224.143 111.351C224.143 107.027 222.076 103.694 217.943 101.351C213.988 98.8288 208.596 97.5676 201.767 97.5676C193.679 97.5676 187.837 99.3694 184.242 102.973C180.828 106.577 178.671 111.351 177.772 117.297H145.15C145.33 110.45 146.409 104.144 148.386 98.3784C150.542 92.6126 153.867 87.6577 158.361 83.5135C163.034 79.3694 169.055 76.2162 176.424 74.054C183.793 71.7117 192.78 70.5405 203.384 70.5405C213.809 70.5405 222.616 71.7117 229.805 74.054C237.174 76.3964 243.015 79.8198 247.329 84.3243C251.822 88.6486 255.058 94.1441 257.035 100.811C259.012 107.297 260 114.685 260 122.973V207.027H227.379Z" fill="#0029C1"/>
<path d="M353.941 114.324C353.043 108.198 350.706 103.784 346.932 101.081C343.337 98.1982 337.765 96.7568 330.216 96.7568C323.027 96.7568 317.545 97.6576 313.771 99.4594C310.176 101.081 308.379 103.964 308.379 108.108C308.379 111.712 310.176 114.595 313.771 116.757C317.545 118.919 322.937 120.991 329.947 122.973C341.45 126.216 351.155 129.009 359.064 131.351C366.972 133.514 373.263 136.126 377.936 139.189C382.789 142.252 386.203 146.126 388.181 150.811C390.337 155.315 391.416 161.441 391.416 169.189C391.416 181.081 386.473 190.991 376.588 198.919C366.702 206.667 352.054 210.541 332.643 210.541C323.117 210.541 314.49 209.459 306.761 207.297C299.033 205.135 292.382 202.072 286.811 198.108C281.419 193.964 277.195 189.099 274.14 183.514C271.264 177.748 269.736 171.351 269.556 164.324H305.683C305.683 170.631 308.109 175.495 312.962 178.919C317.995 182.342 324.465 184.054 332.373 184.054C339.023 184.054 344.685 183.063 349.358 181.081C354.211 178.919 356.637 175.676 356.637 171.351C356.637 166.486 354.84 162.973 351.245 160.811C347.83 158.649 342.528 156.757 335.339 155.135C322.398 152.252 311.973 149.279 304.065 146.216C296.157 142.973 289.956 139.459 285.463 135.676C281.149 131.892 278.184 127.748 276.566 123.243C275.128 118.739 274.409 113.694 274.409 108.108C274.409 103.063 275.398 98.2883 277.375 93.7838C279.532 89.2793 282.857 85.3153 287.35 81.8919C291.843 78.4685 297.685 75.7658 304.874 73.7838C312.063 71.6216 320.87 70.5405 331.295 70.5405C350.347 70.5405 364.276 74.4144 373.083 82.1622C381.89 89.9099 386.743 100.631 387.641 114.324H353.941Z" fill="#0029C1"/>
<path d="M475.207 119.459H507.828V157.297C507.828 164.324 506.75 171.081 504.593 177.568C502.616 183.874 499.381 189.55 494.888 194.595C490.574 199.459 485.002 203.333 478.172 206.216C471.522 209.099 463.524 210.541 454.178 210.541C444.472 210.541 436.205 209.099 429.375 206.216C422.545 203.333 416.883 199.459 412.39 194.595C408.076 189.73 404.931 184.054 402.954 177.568C400.977 171.081 399.988 164.234 399.988 157.027V38.1081H434.497V74.054H507.828V98.9189H434.497V153.514C434.497 161.982 436.025 168.559 439.08 173.243C442.315 177.748 447.528 180 454.717 180C461.727 180 466.849 177.748 470.084 173.243C473.499 168.739 475.207 162.342 475.207 154.054V119.459Z" fill="#0029C1"/>
<path d="M520.571 207.027V74.054H553.463V90C556.338 85.4955 559.304 81.982 562.359 79.4595C565.595 76.9369 568.83 75.045 572.065 73.7838C575.48 72.3423 578.895 71.4414 582.31 71.0811C585.725 70.7207 589.23 70.5405 592.824 70.5405H597.407V106.486C594.172 105.946 590.937 105.676 587.702 105.676C566.313 105.676 555.619 116.396 555.619 137.838V207.027H520.571Z" fill="#0029C1"/>
<path d="M663.746 181.081C685.134 181.081 695.828 167.568 695.828 140.541C695.828 113.694 685.134 100.27 663.746 100.27C642.358 100.27 631.664 113.694 631.664 140.541C631.664 167.568 642.358 181.081 663.746 181.081ZM663.746 210.541C652.962 210.541 643.346 208.829 634.899 205.405C626.451 201.982 619.262 197.207 613.331 191.081C607.579 184.955 603.176 177.568 600.12 168.919C597.065 160.27 595.537 150.811 595.537 140.541C595.537 130.09 597.065 120.541 600.12 111.892C603.355 103.243 607.939 95.8558 613.87 89.7297C619.801 83.6036 626.901 78.9189 635.168 75.6757C643.616 72.2523 653.142 70.5405 663.746 70.5405C674.171 70.5405 683.517 72.2523 691.784 75.6757C700.052 78.9189 707.062 83.6036 712.813 89.7297C718.744 95.6757 723.238 102.973 726.293 111.622C729.529 120.27 731.146 129.91 731.146 140.541C731.146 151.171 729.529 160.811 726.293 169.459C723.238 177.928 718.744 185.225 712.813 191.351C707.062 197.477 699.962 202.252 691.515 205.676C683.247 208.919 673.991 210.541 663.746 210.541Z" fill="#0029C1"/>
<path d="M816.119 202.162C822.949 202.162 828.79 200.721 833.643 197.838C838.675 194.955 842.54 191.351 845.236 187.027C848.111 182.703 850.358 177.207 851.976 170.541C854.312 159.91 855.48 146.486 855.48 130.27C855.48 114.054 852.695 101.712 847.123 93.2432C841.551 84.7748 833.733 80.5405 823.668 80.5405C813.602 80.5405 804.346 84.8649 795.899 93.5135C787.631 101.982 783.497 109.82 783.497 117.027L784.036 192.162C792.663 198.829 803.358 202.162 816.119 202.162ZM783.767 0L783.497 57.8378C783.497 76.2162 783.048 89.2793 782.149 97.027H784.575C789.428 89.0991 796.168 82.973 804.795 78.6486C813.423 74.3243 822.679 72.1622 832.564 72.1622C847.482 72.1622 859.974 77.3874 870.039 87.8378C880.104 98.1081 885.136 114.505 885.136 137.027C885.136 159.369 879.115 177.207 867.073 190.541C855.031 203.694 837.867 210.27 815.58 210.27C810.547 210.27 804.706 209.459 798.055 207.838C791.585 206.216 786.283 204.054 782.149 201.351L757.346 210V12.973L733.621 11.8919L733.351 5.67567L783.767 0Z" fill="#0029C1"/>
<path d="M1044.35 141.081C1044.35 161.081 1038.33 177.568 1026.29 190.541C1014.25 203.513 997.801 210 976.952 210C956.283 210 939.927 203.513 927.885 190.541C915.843 177.568 909.822 161.081 909.822 141.081C909.822 121.081 915.843 104.595 927.885 91.6216C939.927 78.6486 956.283 72.1622 976.952 72.1622C997.801 72.1622 1014.25 78.6486 1026.29 91.6216C1038.33 104.595 1044.35 121.081 1044.35 141.081ZM939.208 141.081C939.208 182.703 951.79 203.514 976.952 203.514C1002.29 203.514 1014.97 182.703 1014.97 141.081C1014.97 120.901 1012.09 105.495 1006.34 94.8649C1000.59 84.2342 990.882 78.9189 977.222 78.9189C963.562 78.9189 953.767 84.2342 947.835 94.8649C942.084 105.495 939.208 120.901 939.208 141.081Z" fill="#0029C1"/>
<path d="M1150 178.919C1150 179.459 1149.91 180.09 1149.73 180.811C1146.85 189.64 1142 196.757 1135.17 202.162C1128.52 207.387 1120.7 210 1111.72 210C1102.73 210 1095.18 207.477 1089.07 202.432C1083.14 197.207 1080.17 187.117 1080.17 172.162C1080.17 168.018 1080.62 138.018 1081.52 82.1622H1062.92V75.1351H1081.79L1082.06 35.4054H1108.48L1107.67 75.1351H1146.23V82.1622H1107.67C1106.77 140.36 1106.32 174.414 1106.32 184.324C1106.32 196.396 1110.28 202.432 1118.19 202.432C1123.04 202.432 1128.07 199.64 1133.28 194.054C1138.68 188.468 1142.45 182.162 1144.61 175.135C1148.2 175.135 1150 176.396 1150 178.919Z" fill="#0029C1"/>
</svg>
